<?xml version="1.0" standalone="no"?>
<!DOCTYPE svg PUBLIC "-//W3C//DTD SVG 20010904//EN"
 "http://www.w3.org/TR/2001/REC-SVG-20010904/DTD/svg10.dtd">
<svg version="1.0" xmlns="http://www.w3.org/2000/svg"
 width="260.000000pt" height="260.000000pt" viewBox="0 0 260.000000 260.000000"
 preserveAspectRatio="xMidYMid meet">
<metadata>
Created by potrace 1.11, written by Peter Selinger 2001-2013
</metadata>
<g transform="translate(0.000000,260.000000) scale(0.100000,-0.100000)"
fill="#000000" stroke="none">
<path d="M1345 2509 c-11 -6 -36 -29 -56 -52 l-36 -41 -18 27 c-25 39 -41 34
-73 -23 -15 -27 -32 -50 -39 -50 -6 0 -21 25 -34 55 -13 31 -27 54 -32 52 -5
-1 -20 -23 -33 -47 -19 -36 -24 -60 -24 -119 0 -41 5 -89 12 -107 14 -40 2
-59 -42 -68 -36 -7 -131 -63 -212 -124 -97 -74 -203 -218 -242 -327 -10 -27
-22 -59 -26 -70 -5 -11 -11 -31 -13 -45 -3 -14 -13 -54 -22 -90 -14 -53 -16
-88 -11 -183 7 -133 23 -207 68 -317 52 -127 156 -263 229 -301 21 -10 40 -27
43 -36 9 -25 109 -96 178 -126 68 -30 182 -62 257 -72 51 -7 53 -8 48 -35 -4
-16 0 -36 9 -48 9 -13 11 -23 4 -27 -15 -9 -5 -206 12 -216 7 -4 16 -5 21 0 6
6 25 226 27 307 0 7 25 14 58 17 331 30 606 220 744 513 60 128 82 235 80 384
-2 160 -23 245 -97 390 -47 91 -72 126 -152 210 -52 55 -117 114 -145 132
l-49 32 8 51 c8 49 9 129 3 230 -2 28 0 60 4 73 11 33 -11 28 -82 -17 -34 -22
-63 -50 -67 -63 -7 -22 -22 -38 -36 -38 -4 0 -10 16 -13 35 -4 19 -18 47 -31
62 l-23 28 -42 -34 -43 -34 -18 24 c-10 13 -19 29 -19 35 0 14 -39 64 -48 64
-4 0 -16 -5 -27 -11z m49 -72 c54 -92 62 -122 56 -217 -2 -37 -4 -31 -10 33
-7 71 -23 113 -39 103 -4 -3 -3 -35 2 -73 8 -55 6 -87 -9 -162 -18 -88 -21
-95 -46 -102 -16 -4 -28 -6 -28 -4 0 1 7 18 15 37 8 20 17 65 21 101 7 72 -11
147 -47 199 -24 33 -17 70 18 98 35 27 45 25 67 -13z m369 -230 c-3 -31 -9
-59 -13 -62 -3 -2 -4 10 -2 27 3 17 -1 75 -8 129 -10 80 -10 101 2 120 12 22
14 16 20 -66 3 -49 4 -116 1 -148z m-553 204 c0 -4 14 -26 31 -47 52 -64 71
-118 71 -198 0 -49 -6 -84 -18 -111 -18 -37 -22 -40 -59 -40 -37 0 -42 3 -65
45 -22 40 -25 57 -25 145 0 84 4 109 24 158 22 50 41 73 41 48z m347 -23 c11
-22 17 -62 19 -118 l3 -85 -9 68 c-9 76 -15 97 -28 97 -4 0 -8 -46 -8 -102 -1
-109 -12 -163 -43 -214 -16 -26 -24 -30 -50 -26 l-30 4 19 37 c32 63 52 160
49 236 -3 61 0 74 21 103 13 17 27 32 32 32 4 0 15 -15 25 -32z m-459 -52 c6
-3 10 -52 9 -114 -1 -100 -2 -104 -13 -67 -7 22 -15 66 -19 98 -4 31 -11 57
-15 57 -12 0 -20 -42 -15 -85 3 -29 1 -25 -7 13 -8 40 -8 67 1 109 l13 55 18
-30 c10 -16 23 -33 28 -36z m610 -41 c0 -16 -2 -24 -5 -17 -12 31 -21 5 -25
-80 -6 -107 -27 -167 -70 -203 -57 -48 -95 -24 -59 37 31 52 61 147 65 206 4
45 10 58 43 91 36 37 38 38 45 18 3 -12 6 -35 6 -52z m9 -57 c-3 -8 -6 -5 -6
6 -1 11 2 17 5 13 3 -3 4 -12 1 -19z m-150 -80 c-3 -8 -6 -5 -6 6 -1 11 2 17
5 13 3 -3 4 -12 1 -19z m-518 -84 l30 -55 -43 -18 c-144 -62 -287 -196 -355
-334 -108 -217 -108 -446 -2 -660 23 -46 32 -72 22 -63 -22 20 -34 10 -20 -15
6 -13 6 -19 -1 -19 -5 0 -10 5 -10 10 0 6 -7 10 -15 10 -13 0 -14 -4 -4 -22
12 -23 12 -23 -9 -5 -26 24 -37 6 -14 -23 l18 -22 37 22 c20 12 37 26 37 30 0
5 42 -33 93 -84 65 -64 113 -103 162 -128 64 -33 181 -72 243 -80 21 -3 24 -9
27 -67 l3 -63 -51 6 c-61 9 -199 53 -224 72 -17 13 -15 16 20 47 41 36 48 52
17 44 -14 -4 -25 1 -33 14 -18 29 -24 24 -31 -26 -4 -24 -12 -47 -17 -51 -26
-16 -207 128 -277 222 -21 28 -57 86 -79 130 -222 428 -53 933 386 1156 31 15
57 28 58 28 1 0 15 -25 32 -56z m757 -41 c107 -81 127 -101 185 -177 67 -88
119 -184 143 -265 9 -30 16 -57 16 -59 0 -3 -25 -2 -55 1 -57 6 -68 -2 -40
-30 12 -11 13 -19 5 -28 -22 -26 10 -26 43 -1 19 15 38 26 44 26 26 0 31 -215
9 -332 -48 -251 -222 -478 -451 -590 -93 -45 -186 -74 -274 -86 l-64 -9 6 60
c3 33 11 63 17 67 7 4 34 10 60 13 67 8 180 49 248 89 30 18 92 69 137 113 70
68 89 95 131 182 33 69 53 100 63 97 7 -2 20 4 27 13 12 15 13 15 8 2 -3 -10
0 -20 6 -24 7 -4 14 2 17 14 3 11 9 19 13 16 5 -3 6 -14 3 -25 -3 -11 0 -20 6
-20 6 0 11 3 11 8 0 4 3 17 6 28 5 18 0 24 -31 34 -19 6 -43 9 -52 6 -12 -5
-14 -1 -9 16 3 13 6 32 7 43 0 19 1 18 11 -3 13 -26 54 -39 77 -25 9 6 16 23
16 39 0 28 -2 29 -48 29 l-47 0 0 63 0 62 20 -20 c25 -25 41 -25 71 -1 21 16
22 22 11 45 -14 30 -55 36 -83 10 -17 -15 -18 -13 -24 23 -34 206 -156 398
-318 501 l-45 28 30 52 c16 29 33 52 37 52 4 0 30 -17 57 -37z m-729 -69 c-3
-3 -12 -4 -19 -1 -8 3 -5 6 6 6 11 1 17 -2 13 -5z m411 -24 c17 -7 32 -18 32
-26 0 -18 -5 -18 -82 2 -61 16 -120 15 -220 -2 -31 -5 -38 -4 -38 10 0 8 10
18 23 20 12 3 31 7 42 10 35 9 209 -1 243 -14z m-465 -7 c-7 -2 -19 -2 -25 0
-7 3 -2 5 12 5 14 0 19 -2 13 -5z m397 -63 c8 -5 11 -12 7 -16 -7 -8 -169 -6
-177 2 -12 13 31 24 90 24 36 0 72 -4 80 -10z m-205 -31 c4 -11 16 -24 28 -28
19 -7 17 -9 -18 -21 -72 -23 -177 -83 -231 -132 -56 -52 -104 -134 -104 -179
0 -33 -13 -44 -32 -26 -7 8 -23 19 -36 26 -26 14 -27 31 -5 91 21 57 31 70 53
70 28 0 70 57 70 95 0 18 8 43 19 56 17 21 22 22 45 11 47 -21 83 -15 98 16 9
19 23 29 48 33 57 10 58 10 65 -12z m-312 -6 c-7 -2 -21 -2 -30 0 -10 3 -4 5
12 5 17 0 24 -2 18 -5z m735 0 c-16 -2 -40 -2 -55 0 -16 2 -3 4 27 4 30 0 43
-2 28 -4z m145 0 c-7 -2 -21 -2 -30 0 -10 3 -4 5 12 5 17 0 24 -2 18 -5z
m-905 -30 c-10 -2 -28 -2 -40 0 -13 2 -5 4 17 4 22 1 32 -1 23 -4z m620 0
c-10 -2 -26 -2 -35 0 -10 3 -2 5 17 5 19 0 27 -2 18 -5z m170 0 c-15 -2 -42
-2 -60 0 -18 2 -6 4 27 4 33 0 48 -2 33 -4z m145 0 c-7 -2 -21 -2 -30 0 -10 3
-4 5 12 5 17 0 24 -2 18 -5z m-955 -30 c-10 -2 -28 -2 -40 0 -13 2 -5 4 17 4
22 1 32 -1 23 -4z m665 0 c-7 -2 -21 -2 -30 0 -10 3 -4 5 12 5 17 0 24 -2 18
-5z m170 0 c-18 -2 -48 -2 -65 0 -18 2 -4 4 32 4 36 0 50 -2 33 -4z m145 0
c-10 -2 -26 -2 -35 0 -10 3 -2 5 17 5 19 0 27 -2 18 -5z m-1005 -30 c-7 -2
-19 -2 -25 0 -7 3 -2 5 12 5 14 0 19 -2 13 -5z m383 -51 c-19 -28 -39 -67 -46
-86 -9 -29 -18 -37 -45 -42 -54 -10 -58 -2 -26 48 26 40 139 143 148 134 2 -2
-12 -26 -31 -54z m112 -107 c-2 -2 -16 -7 -32 -11 l-29 -7 6 46 c4 25 17 66
29 92 l23 47 3 -82 c2 -45 2 -84 0 -85z m385 158 c-18 -2 -48 -2 -65 0 -18 2
-4 4 32 4 36 0 50 -2 33 -4z m150 0 c-7 -2 -21 -2 -30 0 -10 3 -4 5 12 5 17 0
24 -2 18 -5z m-592 -42 c-11 -21 -25 -59 -32 -85 -7 -29 -17 -46 -26 -46 -22
0 -9 42 34 113 39 65 53 76 24 18z m136 -87 c5 -42 4 -47 -11 -41 -10 4 -22 7
-27 7 -5 0 -9 37 -8 83 l1 82 19 -42 c11 -23 22 -63 26 -89z m163 -25 c21 -41
18 -45 -23 -30 -16 6 -29 23 -36 44 -6 19 -25 55 -41 81 -17 26 -30 50 -30 54
1 15 111 -111 130 -149z m-122 78 c16 -28 32 -62 36 -74 6 -20 4 -23 -17 -23
-21 0 -25 6 -31 40 -3 23 -12 59 -20 80 -18 52 -5 43 32 -23z m138 -3 c43 -34
102 -120 91 -130 -15 -15 -50 12 -72 55 -13 27 -36 62 -50 80 -35 41 -22 39
31 -5z m-556 -30 c-17 -20 -39 -51 -47 -69 -9 -19 -24 -36 -34 -38 -17 -5 -17
-3 -4 23 14 28 99 120 111 120 3 0 -8 -16 -26 -36z m51 -1 c-17 -21 -31 -43
-31 -50 0 -14 -28 -43 -42 -43 -11 0 27 56 70 103 37 39 39 33 3 -10z m-298
10 c-13 -2 -33 -2 -45 0 -13 2 -3 4 22 4 25 0 35 -2 23 -4z m990 0 c-18 -2
-48 -2 -65 0 -18 2 -4 4 32 4 36 0 50 -2 33 -4z m155 0 c-10 -2 -28 -2 -40 0
-13 2 -5 4 17 4 22 1 32 -1 23 -4z m-1165 -30 c-13 -2 -33 -2 -45 0 -13 2 -3
4 22 4 25 0 35 -2 23 -4z m1035 0 c-10 -2 -28 -2 -40 0 -13 2 -5 4 17 4 22 1
32 -1 23 -4z m140 0 c-10 -2 -28 -2 -40 0 -13 2 -5 4 17 4 22 1 32 -1 23 -4z
m-1190 -30 c-10 -2 -28 -2 -40 0 -13 2 -5 4 17 4 22 1 32 -1 23 -4z m1200 0
c-10 -2 -26 -2 -35 0 -10 3 -2 5 17 5 19 0 27 -2 18 -5z m-85 -66 c89 -46 97
-53 97 -79 0 -44 -23 -80 -84 -133 -47 -40 -60 -60 -86 -127 -32 -82 -89 -171
-120 -188 -10 -6 -33 -10 -50 -10 -37 0 -100 -25 -100 -40 0 -15 -66 -80 -81
-80 -7 0 -21 -7 -31 -17 -31 -28 -34 -13 -25 102 3 33 10 77 16 97 6 20 11 54
11 75 0 21 2 57 6 79 l6 41 74 7 c123 11 202 56 236 134 24 53 25 101 4 160
-15 43 -15 43 7 37 12 -4 66 -30 120 -58z m-635 -9 c-2 -15 -11 -24 -25 -26
-19 -3 -23 1 -23 22 0 21 5 26 26 26 21 0 25 -4 22 -22z m102 -3 c0 -22 -4
-25 -35 -25 -31 0 -35 3 -35 25 0 22 4 25 35 25 31 0 35 -3 35 -25z m80 0 c0
-20 -5 -25 -25 -25 -20 0 -25 5 -25 25 0 20 5 25 25 25 20 0 25 -5 25 -25z
m74 19 c9 -3 16 -17 16 -31 0 -19 -4 -24 -16 -19 -9 3 -22 6 -30 6 -8 0 -14
10 -14 25 0 25 13 31 44 19z m-334 -29 c0 -22 -4 -25 -40 -25 -33 0 -40 3 -40
19 0 22 13 29 53 30 22 1 27 -3 27 -24z m431 15 c14 0 19 -7 19 -25 0 -26 -9
-29 -47 -19 -16 5 -23 14 -23 31 0 19 4 24 16 19 9 -3 24 -6 35 -6z m-563 -51
c-21 -14 -28 -10 -28 15 0 30 33 41 38 12 2 -10 -2 -23 -10 -27z m653 31 c5 0
9 -12 9 -26 0 -20 -4 -25 -16 -20 -9 3 -20 6 -25 6 -5 0 -9 12 -9 26 0 20 4
25 16 20 9 -3 20 -6 25 -6z m-948 -7 c-13 -2 -33 -2 -45 0 -13 2 -3 4 22 4 25
0 35 -2 23 -4z m235 -15 c-5 -32 -28 -35 -28 -4 0 17 5 26 16 26 10 0 14 -7
12 -22z m772 -13 c0 -8 -4 -17 -10 -20 -6 -4 -10 5 -10 20 0 15 4 24 10 20 6
-3 10 -12 10 -20z m-1022 -2 c-10 -2 -28 -2 -40 0 -13 2 -5 4 17 4 22 1 32 -1
23 -4z m531 -40 c7 -21 24 -53 38 -70 29 -40 16 -43 -27 -7 -26 22 -70 90 -70
109 0 3 10 5 23 5 18 0 26 -9 36 -37z m91 -24 c0 -54 -2 -60 -16 -49 -18 16
-33 43 -44 81 -8 28 -7 29 26 29 l34 0 0 -61z m74 39 c-9 -30 -33 -78 -39 -78
-3 0 -5 23 -5 50 0 47 2 50 26 50 22 0 24 -3 18 -22z m86 7 c0 -38 -48 -98
-99 -125 -26 -13 -26 -13 15 48 13 18 25 46 29 62 5 23 12 30 31 30 15 0 24
-6 24 -15z m-330 -30 c7 -20 28 -51 47 -70 22 -21 30 -35 22 -35 -22 0 -90 48
-123 87 -24 28 -27 36 -15 44 31 20 57 10 69 -26z m429 19 c7 -6 -41 -64 -77
-93 -21 -16 -51 -33 -67 -37 l-29 -7 36 32 c20 17 46 52 58 76 20 40 24 44 48
39 15 -4 29 -8 31 -10z m-464 -97 l40 -37 -35 12 c-19 6 -57 34 -84 61 -45 45
-48 51 -31 57 15 6 26 0 45 -24 13 -17 42 -48 65 -69z m532 85 c18 -12 -14
-46 -81 -86 -33 -20 -65 -36 -70 -36 -6 0 -2 6 9 12 32 17 76 61 91 91 15 27
29 33 51 19z m-658 -40 l24 -37 -33 26 c-37 28 -49 49 -28 49 7 0 24 -17 37
-38z m1129 20 c5 -17 -27 -27 -41 -13 -9 9 -8 14 3 21 18 11 32 8 38 -8z
m-1255 1 c-18 -2 -48 -2 -65 0 -18 2 -4 4 32 4 36 0 50 -2 33 -4z m825 -15
c-18 -28 -95 -88 -111 -88 -7 0 7 13 30 28 23 15 51 40 63 55 26 33 38 36 18
5z m-995 -55 c-13 -2 -33 -2 -45 0 -13 2 -3 4 22 4 25 0 35 -2 23 -4z m215 0
c-27 -2 -69 -2 -95 0 -27 2 -5 3 47 3 52 0 74 -1 48 -3z m1085 0 c-7 -2 -21
-2 -30 0 -10 3 -4 5 12 5 17 0 24 -2 18 -5z m-1300 -30 c-13 -2 -33 -2 -45 0
-13 2 -3 4 22 4 25 0 35 -2 23 -4z m215 0 c-27 -2 -69 -2 -95 0 -27 2 -5 3 47
3 52 0 74 -1 48 -3z m1075 0 c-13 -2 -33 -2 -45 0 -13 2 -3 4 22 4 25 0 35 -2
23 -4z m-1280 -30 c-13 -2 -35 -2 -50 0 -16 2 -5 4 22 4 28 0 40 -2 28 -4z
m215 0 c-26 -2 -71 -2 -100 0 -29 2 -8 3 47 3 55 0 79 -1 53 -3z m155 0 c-13
-2 -35 -2 -50 0 -16 2 -5 4 22 4 28 0 40 -2 28 -4z m129 -10 c11 -9 18 -30 18
-50 0 -33 0 -33 -23 -18 -22 14 -47 54 -47 75 0 16 32 11 52 -7z m781 10 c-13
-2 -35 -2 -50 0 -16 2 -5 4 22 4 28 0 40 -2 28 -4z m-676 -67 c-45 -41 -62
-42 -32 -2 18 23 67 57 74 50 3 -2 -16 -24 -42 -48z m-494 37 c-7 -2 -19 -2
-25 0 -7 3 -2 5 12 5 14 0 19 -2 13 -5z m1301 -14 c-8 -14 -44 -10 -44 5 0 9
8 12 25 8 14 -2 22 -8 19 -13z m-743 -36 c-16 -30 -113 -120 -105 -98 11 30
40 65 76 92 38 28 42 28 29 6z m-137 -116 c-8 -64 -24 -67 -23 -4 2 38 16 74
26 64 2 -2 1 -29 -3 -60z m-491 36 c-7 -2 -19 -2 -25 0 -7 3 -2 5 12 5 14 0
19 -2 13 -5z m190 0 c-24 -2 -62 -2 -85 0 -24 2 -5 4 42 4 47 0 66 -2 43 -4z
m205 0 c-21 -2 -55 -2 -75 0 -21 2 -4 4 37 4 41 0 58 -2 38 -4z m213 -55 c-6
-19 -29 -51 -50 -72 -37 -36 -39 -37 -46 -17 -8 26 7 56 53 103 42 44 60 37
43 -14z m-548 -65 c-7 -2 -19 -2 -25 0 -7 3 -2 5 12 5 14 0 19 -2 13 -5z m115
0 c-10 -2 -26 -2 -35 0 -10 3 -2 5 17 5 19 0 27 -2 18 -5z m845 0 c-7 -2 -21
-2 -30 0 -10 3 -4 5 12 5 17 0 24 -2 18 -5z m-610 -30 c-7 -2 -21 -2 -30 0
-10 3 -4 5 12 5 17 0 24 -2 18 -5z m190 -17 c7 -18 -15 -49 -53 -76 -40 -29
-40 -7 0 48 32 44 44 51 53 28z m454 -52 c-3 -3 -12 -4 -19 -1 -8 3 -5 6 6 6
11 1 17 -2 13 -5z m-130 -30 c-3 -3 -12 -4 -19 -1 -8 3 -5 6 6 6 11 1 17 -2
13 -5z m-327 -33 c0 -16 -61 -81 -75 -81 -17 0 0 47 26 71 36 34 49 36 49 10z
m-427 2 c-13 -2 -33 -2 -45 0 -13 2 -3 4 22 4 25 0 35 -2 23 -4z m160 0 c-13
-2 -35 -2 -50 0 -16 2 -5 4 22 4 28 0 40 -2 28 -4z m135 0 c-10 -2 -28 -2 -40
0 -13 2 -5 4 17 4 22 1 32 -1 23 -4z m410 0 c-15 -2 -42 -2 -60 0 -18 2 -6 4
27 4 33 0 48 -2 33 -4z m150 0 c-10 -2 -28 -2 -40 0 -13 2 -5 4 17 4 22 1 32
-1 23 -4z m-820 -30 c-10 -2 -28 -2 -40 0 -13 2 -5 4 17 4 22 1 32 -1 23 -4z
m155 0 c-13 -2 -35 -2 -50 0 -16 2 -5 4 22 4 28 0 40 -2 28 -4z m340 0 c-7 -2
-19 -2 -25 0 -7 3 -2 5 12 5 14 0 19 -2 13 -5z m145 0 c-16 -2 -40 -2 -55 0
-16 2 -3 4 27 4 30 0 43 -2 28 -4z m140 0 c-10 -2 -26 -2 -35 0 -10 3 -2 5 17
5 19 0 27 -2 18 -5z m-745 -30 c-7 -2 -21 -2 -30 0 -10 3 -4 5 12 5 17 0 24
-2 18 -5z m145 0 c-10 -2 -26 -2 -35 0 -10 3 -2 5 17 5 19 0 27 -2 18 -5z
m285 0 c-7 -2 -19 -2 -25 0 -7 3 -2 5 12 5 14 0 19 -2 13 -5z m135 0 c-10 -2
-28 -2 -40 0 -13 2 -5 4 17 4 22 1 32 -1 23 -4z m135 0 c-7 -2 -19 -2 -25 0
-7 3 -2 5 12 5 14 0 19 -2 13 -5z m-448 -38 l18 -30 -21 19 c-12 11 -22 26
-22 34 0 17 -1 18 25 -23z m101 -12 c-4 -16 -19 -39 -34 -52 l-27 -24 -3 21
c-4 26 33 82 55 82 11 0 14 -7 9 -27z m-249 -19 c-3 -3 -12 -4 -19 -1 -8 3 -5
6 6 6 11 1 17 -2 13 -5z m370 0 c-3 -3 -12 -4 -19 -1 -8 3 -5 6 6 6 11 1 17
-2 13 -5z m-127 -82 c0 -10 -13 -31 -30 -47 l-30 -29 0 25 c0 25 32 69 50 69
6 0 10 -8 10 -18z m-29 -135 c-20 -20 -21 -20 -21 -3 0 11 8 28 18 39 16 18
17 18 20 2 2 -10 -5 -27 -17 -38z m9 -64 c0 -14 -19 -38 -25 -32 -8 8 5 39 16
39 5 0 9 -3 9 -7z"/>
<path d="M1192 2337 c-38 -45 -45 -170 -14 -240 32 -73 67 -79 38 -7 -20 50
-21 124 -1 180 11 30 12 47 5 61 -13 23 -14 23 -28 6z"/>
<path d="M875 2036 c-19 -14 -19 -16 -2 -50 18 -39 53 -52 42 -15 -6 19 -5 20
15 9 28 -15 38 -5 18 17 -8 10 -18 26 -21 36 -8 21 -26 22 -52 3z"/>
<path d="M756 1944 c-21 -20 -20 -26 5 -58 24 -30 55 -32 73 -4 13 21 0 36
-16 20 -18 -18 -33 -15 -18 3 17 20 5 32 -15 15 -9 -8 -15 -8 -15 -2 0 6 5 14
10 17 13 8 13 25 1 25 -5 0 -17 -7 -25 -16z"/>
<path d="M660 1836 c-18 -22 -8 -59 19 -73 30 -14 61 -1 61 27 0 27 -20 36
-27 11 -6 -25 -16 -27 -34 -5 -11 13 -10 17 4 26 10 5 15 13 12 19 -9 13 -21
11 -35 -5z"/>
<path d="M570 1701 c0 -5 -3 -16 -6 -25 -4 -10 7 -21 35 -35 l40 -21 16 29 c8
17 11 32 6 35 -5 3 -11 -1 -15 -9 -8 -22 -25 -18 -19 5 7 25 -5 26 -23 3 -12
-16 -12 -16 -7 5 4 16 1 22 -11 22 -9 0 -16 -4 -16 -9z"/>
<path d="M524 1555 c-20 -31 -13 -41 36 -56 44 -13 65 -5 37 15 -21 16 -22 24
-1 22 9 0 19 5 21 12 3 7 -5 12 -21 12 -13 0 -28 5 -31 10 -10 16 -24 12 -41
-15z"/>
<path d="M500 1405 c-18 -22 -4 -64 24 -71 50 -12 88 40 54 74 -17 17 -63 15
-78 -3z m60 -31 c0 -9 -7 -14 -17 -12 -25 5 -28 28 -4 28 12 0 21 -6 21 -16z"/>
<path d="M530 1251 c-33 -9 -38 -37 -8 -45 21 -6 21 -7 6 -17 -30 -17 -22 -39
15 -39 37 0 70 18 49 27 -10 4 -10 8 0 21 9 11 10 16 2 19 -7 2 -10 13 -7 23
6 22 -9 24 -57 11z"/>
<path d="M582 1072 c-25 -13 -32 -23 -30 -42 2 -19 9 -25 28 -25 17 0 26 7 31
25 7 24 7 24 8 3 1 -27 16 -30 25 -7 5 13 -17 66 -27 63 -1 0 -17 -8 -35 -17z"/>
<path d="M804 745 c-35 -54 21 -100 66 -55 25 25 25 42 2 63 -26 24 -49 21
-68 -8z m56 -19 c0 -19 -17 -29 -37 -22 -12 5 -13 9 -3 21 16 19 40 19 40 1z"/>
<path d="M1090 606 c-14 -39 -16 -59 -3 -63 6 -2 13 4 16 14 3 15 6 13 15 -9
16 -39 28 -35 45 17 13 37 13 45 2 45 -7 0 -17 -10 -21 -22 -7 -21 -8 -21 -16
10 -10 38 -25 41 -38 8z"/>
<path d="M1746 1997 c-30 -39 -32 -47 -11 -47 8 0 15 5 15 11 0 6 9 8 20 4 20
-6 50 9 50 26 0 10 -29 39 -40 39 -5 0 -20 -15 -34 -33z"/>
<path d="M1823 1943 c-32 -16 -48 -48 -18 -37 10 4 18 -3 25 -20 13 -34 18
-33 36 9 27 66 17 77 -43 48z"/>
<path d="M1897 1872 c-32 -34 -34 -46 -7 -37 18 6 20 3 14 -19 -8 -34 1 -33
38 4 29 29 29 31 14 55 -21 32 -26 31 -59 -3z"/>
<path d="M1953 1783 c-26 -5 -31 -23 -8 -23 15 0 19 -10 16 -42 -1 -10 2 -18
8 -18 10 0 61 68 61 82 0 8 -38 9 -77 1z"/>
<path d="M2030 1642 l-35 -16 28 -4 c28 -3 28 -4 11 -23 -27 -30 -5 -44 40
-25 38 16 51 42 15 31 -20 -7 -20 -6 -5 17 26 40 5 48 -54 20z"/>
<path d="M2001 1048 c-11 -31 -3 -48 23 -48 12 0 28 6 36 13 12 10 12 9 1 -6
-8 -9 -12 -20 -9 -22 10 -10 36 7 41 25 6 24 -16 56 -31 46 -7 -4 -12 -2 -12
3 0 21 -41 11 -49 -11z"/>
<path d="M1970 970 c0 -5 8 -14 18 -20 14 -8 12 -9 -10 -4 -30 7 -38 -10 -18
-34 7 -9 7 -9 -2 -2 -16 14 -28 13 -28 -3 0 -17 57 -50 76 -43 13 5 12 9 -2
31 -17 26 -17 26 8 20 40 -10 47 14 12 42 -30 24 -54 30 -54 13z"/>
<path d="M1887 862 c-28 -30 -18 -59 10 -31 9 9 10 7 6 -10 -6 -23 6 -28 25
-9 9 9 12 9 12 1 0 -7 -5 -15 -10 -18 -6 -4 -8 -11 -4 -16 7 -12 44 18 44 36
0 11 -51 65 -61 65 -3 0 -13 -8 -22 -18z"/>
<path d="M1839 786 c18 -22 8 -31 -18 -16 -30 16 -28 -8 4 -43 31 -32 36 -33
60 -7 18 20 18 21 -2 48 -11 15 -28 29 -39 31 -16 3 -17 1 -5 -13z"/>
<path d="M1738 729 c-28 -16 -22 -32 10 -24 22 5 25 4 15 -6 -20 -20 -15 -31
9 -23 20 6 21 5 9 -10 -19 -22 -8 -31 18 -14 26 16 26 23 0 59 -22 31 -34 34
-61 18z"/>
<path d="M1658 679 c-10 -5 -18 -17 -18 -24 0 -18 12 -19 27 -4 15 15 33 3 33
-22 0 -12 -6 -19 -14 -17 -8 2 -15 -1 -15 -7 -1 -17 41 -11 53 8 8 13 7 24 -4
45 -17 30 -36 37 -62 21z"/>
<path d="M1570 638 l-25 -11 30 -6 c25 -5 27 -8 12 -14 -23 -9 -11 -31 12 -23
12 5 11 2 -3 -9 -24 -19 -15 -29 19 -21 29 7 30 14 11 61 -16 38 -19 39 -56
23z"/>
<path d="M1505 600 c8 -25 -3 -26 -21 -3 -18 26 -25 12 -16 -33 6 -30 13 -40
30 -42 39 -6 51 13 40 58 -6 24 -16 40 -25 40 -10 0 -12 -6 -8 -20z"/>
<path d="M373 2153 c-7 -2 -22 -21 -34 -42 -20 -37 -59 -70 -59 -52 0 11 -44
61 -54 61 -3 0 -6 -8 -6 -18 0 -10 -16 -42 -36 -72 -34 -52 -35 -58 -30 -120
6 -64 5 -65 -24 -82 -34 -20 -38 -39 -12 -65 36 -35 44 -74 31 -149 -6 -38
-16 -72 -21 -75 -9 -6 -16 -28 -17 -57 -1 -10 -8 -9 -31 4 -16 10 -31 16 -33
13 -3 -2 -7 -49 -10 -103 l-6 -100 34 -31 c26 -25 32 -37 28 -58 -6 -30 11
-57 36 -57 44 -1 87 -90 98 -203 l5 -49 -46 7 c-53 8 -55 3 -27 -53 10 -20 21
-55 25 -76 10 -51 52 -92 110 -108 41 -11 46 -15 46 -40 0 -24 7 -32 46 -48
57 -25 63 -25 89 0 l21 20 42 -44 c48 -51 54 -76 18 -76 -31 0 -44 -20 -22
-32 10 -5 39 -29 66 -53 70 -62 86 -69 165 -69 51 0 73 -4 86 -17 9 -9 36 -20
60 -24 34 -6 45 -4 55 9 10 15 18 14 85 -13 104 -42 129 -47 129 -28 0 11 -23
23 -72 38 -109 32 -101 26 -135 107 -13 32 -24 45 -44 49 -16 3 -42 26 -69 60
-34 44 -58 62 -114 88 -116 54 -152 54 -111 -1 45 -60 -11 -74 -68 -16 -29 30
-37 46 -37 76 0 44 -15 76 -35 76 -10 0 -15 11 -15 34 0 50 -16 84 -61 133
-22 24 -53 64 -69 90 l-30 47 -6 -32 c-11 -55 -46 -34 -77 46 -20 51 -22 82
-4 82 27 0 40 20 43 65 3 26 0 53 -6 60 -7 9 -7 21 0 39 16 43 23 158 11 189
-13 34 -28 34 -63 2 -50 -47 -58 -33 -48 86 7 98 12 109 46 109 27 0 64 50 64
87 0 13 8 24 21 28 35 11 89 66 115 116 25 49 32 95 14 84 -6 -4 -24 -4 -40 0
-37 8 -39 31 -10 107 11 29 20 54 20 56 0 3 -13 1 -27 -5z m-123 -111 c0 -10
-11 -46 -25 -80 -14 -34 -25 -71 -25 -82 0 -11 -5 -20 -11 -20 -20 0 -4 119
20 151 12 16 21 33 21 39 0 5 5 10 10 10 6 0 10 -8 10 -18z m70 -58 c-13 -33
-80 -118 -87 -110 -10 10 28 101 54 128 31 33 48 24 33 -18z m70 -51 c-36 -69
-87 -113 -129 -113 l-25 0 30 33 c17 17 41 47 53 64 12 19 36 37 54 42 18 5
33 10 35 10 1 1 -7 -16 -18 -36z m-193 -129 c-9 -9 -28 6 -21 18 4 6 10 6 17
-1 6 -6 8 -13 4 -17z m-42 -24 c-5 -8 -11 -8 -17 -2 -6 6 -7 16 -3 22 5 8 11
8 17 2 6 -6 7 -16 3 -22z m75 6 c0 -3 -4 -8 -10 -11 -5 -3 -10 -1 -10 4 0 6 5
11 10 11 6 0 10 -2 10 -4z m-40 -41 c0 -8 -7 -15 -15 -15 -16 0 -20 12 -8 23
11 12 23 8 23 -8z m40 -25 c0 -5 -7 -10 -16 -10 -8 0 -12 5 -9 10 3 6 10 10
16 10 5 0 9 -4 9 -10z m-66 -301 c17 -42 19 -149 3 -149 -18 0 -47 68 -47 112
0 86 18 101 44 37z m92 -57 c-3 -19 -13 -46 -23 -61 l-18 -26 -6 70 c-5 61 -3
73 15 93 l21 23 8 -33 c5 -18 6 -48 3 -66z m-166 23 c0 -22 4 -56 10 -74 12
-44 6 -51 -13 -14 -19 37 -30 107 -22 134 10 31 25 5 25 -46z m160 -160 c0 -8
-7 -15 -15 -15 -8 0 -15 7 -15 15 0 8 7 15 15 15 8 0 15 -7 15 -15z m-59 -10
c-1 -15 -24 -12 -29 3 -3 9 2 13 12 10 10 -1 17 -7 17 -13z m-43 -26 c-2 -6
-8 -10 -13 -10 -5 0 -11 4 -13 10 -2 6 4 11 13 11 9 0 15 -5 13 -11z m47 -39
c-5 -8 -11 -8 -17 -2 -6 6 -7 16 -3 22 5 8 11 8 17 2 6 -6 7 -16 3 -22z m53
19 c-2 -6 -8 -10 -13 -10 -5 0 -11 4 -13 10 -2 6 4 11 13 11 9 0 15 -5 13 -11z
m190 -351 c10 -37 5 -95 -9 -104 -5 -3 -9 8 -9 24 0 47 -28 125 -59 167 -47
61 -37 61 18 1 28 -30 54 -70 59 -88z m-104 77 c19 -29 59 -142 54 -155 -5
-15 -65 31 -96 74 -16 23 -27 54 -30 87 l-5 52 32 -19 c18 -10 38 -28 45 -39z
m-119 -33 c6 -4 23 -28 38 -54 15 -25 46 -62 69 -82 44 -38 33 -49 -20 -22
-40 20 -62 49 -87 111 -22 53 -22 63 0 47z m283 -173 c-2 -6 -8 -10 -13 -10
-5 0 -11 4 -13 10 -2 6 4 11 13 11 9 0 15 -5 13 -11z m-42 -20 c3 -6 0 -17 -7
-25 -18 -17 -44 -2 -36 20 7 18 33 21 43 5z m54 -35 c0 -14 -21 -19 -33 -7 -9
9 13 34 24 27 5 -3 9 -12 9 -20z m-110 -9 c0 -8 -6 -15 -14 -15 -17 0 -28 14
-19 24 12 12 33 6 33 -9z m55 -14 c7 -12 -12 -24 -25 -16 -11 7 -4 25 10 25 5
0 11 -4 15 -9z m283 -51 c45 -12 122 -87 122 -120 0 -16 -7 -13 -37 21 -21 23
-62 53 -92 68 -30 14 -57 32 -59 40 -3 10 0 12 11 8 9 -3 33 -11 55 -17z m-11
-61 c17 -6 51 -29 74 -52 l42 -42 -33 -3 c-18 -2 -53 4 -77 13 -44 17 -113 76
-113 96 0 11 51 5 107 -12z m-71 -70 c24 -27 70 -51 114 -60 l35 -7 -42 -1
c-54 -1 -88 12 -135 54 -35 33 -36 35 -15 35 13 0 32 -9 43 -21z m284 -14 c0
-8 -7 -15 -15 -15 -8 0 -15 7 -15 15 0 8 7 15 15 15 8 0 15 -7 15 -15z m-32
-46 c-2 -6 -8 -10 -13 -10 -5 0 -11 4 -13 10 -2 6 4 11 13 11 9 0 15 -5 13
-11z m62 -10 c0 -5 -7 -9 -15 -9 -15 0 -20 12 -9 23 8 8 24 -1 24 -14z m-80
-40 c0 -5 -4 -9 -10 -9 -5 0 -10 7 -10 16 0 8 5 12 10 9 6 -3 10 -10 10 -16z
m60 -4 c0 -8 -7 -15 -15 -15 -8 0 -15 7 -15 15 0 8 7 15 15 15 8 0 15 -7 15
-15z"/>
<path d="M2227 2133 c-3 -5 -4 -60 -3 -123 2 -91 6 -121 20 -142 9 -14 20 -53
23 -85 4 -40 13 -66 28 -83 108 -119 112 -125 113 -164 1 -21 -3 -46 -8 -55
-5 -10 -11 -39 -15 -66 -3 -26 -20 -82 -37 -124 -27 -65 -32 -92 -36 -186 -4
-101 -7 -113 -33 -152 -16 -23 -38 -48 -48 -55 -11 -8 -27 -29 -36 -48 -10
-19 -38 -51 -64 -71 -29 -23 -57 -57 -76 -95 -16 -33 -35 -65 -42 -72 -7 -7
-13 -22 -13 -33 0 -12 -7 -19 -19 -19 -10 0 -36 -7 -57 -16 -21 -9 -50 -18
-63 -21 -14 -2 -30 -8 -36 -12 -5 -5 -38 -16 -73 -27 -41 -12 -67 -25 -74 -39
-6 -11 -21 -32 -35 -46 -13 -15 -32 -41 -41 -60 -14 -28 -27 -35 -81 -51 -35
-9 -69 -22 -75 -28 -18 -18 70 -11 126 10 50 19 53 19 78 2 39 -26 161 -22
223 7 50 25 143 123 133 140 -4 6 4 26 16 45 18 29 29 36 55 36 18 0 53 11 79
25 26 14 52 25 59 25 32 0 189 215 167 229 -8 5 -7 19 3 46 8 22 14 48 15 59
0 10 19 35 43 56 23 21 56 64 72 96 27 53 30 70 33 172 3 84 0 124 -12 159 -9
26 -16 58 -16 72 0 14 -7 44 -16 68 -16 40 -15 43 5 76 24 38 28 125 11 199
-5 24 -12 56 -15 72 -3 16 -23 46 -43 67 -20 21 -66 72 -102 114 -69 82 -120
119 -133 98z m43 -38 c7 -9 8 -15 2 -15 -5 0 -12 7 -16 15 -3 8 -4 15 -2 15 2
0 9 -7 16 -15z m53 -53 c22 -24 63 -82 82 -114 11 -21 13 -33 4 -55 -10 -27
-11 -26 -33 40 -12 37 -37 85 -55 107 -31 39 -30 57 2 22z m-24 -51 c38 -60
69 -146 57 -158 -3 -4 -24 10 -45 31 -32 31 -40 47 -45 89 -4 29 -10 62 -13
75 -9 37 5 25 46 -37z m167 -128 c4 -10 8 -33 9 -52 2 -33 2 -33 -12 -10 -12
21 -13 15 -8 -56 6 -73 5 -78 -9 -61 -17 21 -20 60 -10 144 7 54 16 65 30 35z
m-78 -122 c16 -26 33 -58 37 -72 6 -23 5 -22 -19 6 -36 41 -81 106 -89 128
-13 34 41 -12 71 -62z m6 -89 c21 -18 36 -36 33 -39 -10 -9 -108 90 -128 129
-33 64 -21 66 19 3 21 -33 55 -75 76 -93z m106 42 c0 -29 -6 -58 -15 -70 -14
-18 -14 -16 -7 16 4 19 7 56 7 82 0 25 3 41 7 35 4 -7 8 -35 8 -63z m-31 -176
c25 -57 37 -197 19 -221 -11 -15 -13 -9 -14 40 -1 78 -15 163 -26 163 -6 0 -8
-43 -4 -112 8 -132 -4 -170 -23 -75 -10 49 -10 82 -1 147 16 117 21 123 49 58z
m-61 -326 c4 -93 3 -98 -22 -121 -31 -29 -30 -30 -10 40 12 40 15 74 10 129
-5 59 -4 72 6 62 8 -8 14 -50 16 -110z m117 16 c-11 -103 -24 -148 -55 -193
-38 -55 -70 -70 -36 -17 14 20 32 68 40 105 9 38 21 77 27 89 6 11 8 23 4 26
-11 12 -44 -42 -51 -83 -10 -63 -22 -73 -16 -14 4 45 12 62 46 101 23 27 43
48 44 48 2 0 1 -28 -3 -62z m-169 -30 c-4 -29 -11 -75 -16 -103 -8 -43 -8 -38
-4 30 4 81 12 125 21 125 3 0 2 -24 -1 -52z m23 -208 c-22 -149 -40 -197 -76
-206 -13 -4 -26 -4 -30 -1 -3 3 15 47 41 96 34 68 42 91 30 91 -9 0 -31 -33
-55 -85 -45 -96 -59 -111 -59 -63 0 30 34 97 64 123 6 6 28 32 50 58 21 26 39
47 41 45 1 -2 -1 -28 -6 -58z m-208 -290 c-17 -39 -101 -136 -101 -118 0 4 20
36 45 72 25 35 51 80 58 98 9 26 12 29 15 13 1 -11 -6 -41 -17 -65z m-54 7
c-28 -57 -72 -105 -84 -93 -5 4 -1 13 7 19 8 7 23 29 32 50 10 20 22 37 28 37
6 0 15 12 21 26 5 15 12 24 16 21 3 -4 -6 -30 -20 -60z m143 12 c-40 -31 -64
-44 -55 -27 18 30 39 48 59 48 20 0 20 -1 -4 -21z m22 -46 c-34 -48 -78 -84
-118 -98 -72 -25 -59 -4 48 75 45 33 83 58 86 56 2 -3 -5 -17 -16 -33z m-321
-141 c-14 -9 -43 -32 -64 -50 -42 -34 -53 -36 -43 -5 6 20 52 50 94 63 39 12
40 11 13 -8z m34 -42 c-35 -50 -38 -52 -65 -42 -20 8 -18 11 32 49 29 22 55
39 57 37 2 -2 -9 -22 -24 -44z m-175 -20 c0 -5 -15 -17 -32 -26 -18 -9 -42
-24 -52 -33 -18 -15 -18 -15 -8 6 22 41 92 82 92 53z m-107 -24 c-10 -13 -20
-20 -21 -15 -5 12 17 39 30 39 5 0 1 -11 -9 -24z m192 -45 c-3 -5 -36 -17 -75
-25 -80 -19 -80 -19 -80 -8 0 8 48 26 95 36 38 7 66 6 60 -3z m-235 -26 c0
-16 -27 -32 -37 -21 -7 7 16 36 28 36 5 0 9 -7 9 -15z m200 -40 c-28 -21 -45
-25 -103 -25 -50 0 -68 3 -65 13 3 7 29 13 70 15 37 1 77 6 90 11 40 17 43 12
8 -14z"/>
<path d="M1372 193 c6 -31 228 -87 251 -64 12 12 7 14 -78 31 -33 7 -80 21
-104 31 -54 24 -73 24 -69 2z"/>
<path d="M1155 188 c-16 -6 -68 -13 -114 -17 -50 -3 -86 -11 -88 -18 -7 -20
35 -25 115 -13 84 13 142 33 142 49 0 13 -15 13 -55 -1z"/>
</g>
</svg>
